# xmcd
#
# Track frame offsets: 
#        150
#        19122
#        40584
#        59704
#        75961
#        97481
#        117913
#        140058
#        161312
#        184575
#        201119
#        219369
#        238394
#        255917
#        269508
#
# Disc length: 3878 seconds
#
# Revision: 0
# Processed by: cddbd v1.5.2PL0 Copyright (c) Steve Scherf et al.
# Submitted via: ExactAudioCopyFreeDBPlugin 1.0
#
DISCID=d30f240f
DTITLE=赵鹏 - TEST-CD试音极品NO.34 CDA 低音炮赵鹏
DYEAR=2015
DGENRE=STE
TTITLE0=花房姑娘
TTITLE1=在那东山顶上
TTITLE2=山茶花
TTITLE3=你的眼神
TTITLE4=踏浪
TTITLE5=野花
TTITLE6=张三的歌
TTITLE7=一把小雨伞
TTITLE8=女人花
TTITLE9=喀秋莎
TTITLE10=迟到
TTITLE11=春天里
TTITLE12=晚秋
TTITLE13=啊！朋友再见
TTITLE14=把悲伤留给自己
EXTD=动听绝伦的发烧极品，顶级专业发烧器材的试音精品。
EXTT0=
EXTT1=
EXTT2=
EXTT3=
EXTT4=
EXTT5=
EXTT6=
EXTT7=
EXTT8=
EXTT9=
EXTT10=
EXTT11=
EXTT12=
EXTT13=
EXTT14=
PLAYORDER=
